<svg xmlns="http://www.w3.org/2000/svg" viewBox="-971 10266 52.093 142.104">
  <defs>
    <style>
      .cls-1 {
        opacity: 0.43;
      }

      .cls-2 {
        fill: #8d8d8e;
      }

      .cls-3 {
        fill: #6e6e6d;
      }

      .cls-4 {
        fill: #333;
      }

      .cls-5 {
        fill: #e83b7a;
      }

      .cls-6 {
        fill: #e7205f;
      }

      .cls-7 {
        fill: #8e1539;
      }

      .cls-8 {
        fill: #ec6296;
      }

      .cls-9 {
        opacity: 0.6;
      }
    </style>
  </defs>
  <g id="Group_1246" data-name="Group 1246" transform="translate(-1916 9730)">
    <g id="Group_1019" data-name="Group 1019" class="cls-1" transform="translate(945 615)">
      <path id="Path_18001" data-name="Path 18001" class="cls-2" d="M64.4,14.314,91.238,0l25.255,14.314L89.861,28.421Z" transform="translate(-64.4)"/>
      <path id="Path_18002" data-name="Path 18002" class="cls-3" d="M101.4,34.807V69.559l26.631-14.933V20.7Z" transform="translate(-75.939 -6.455)"/>
      <path id="Path_18003" data-name="Path 18003" class="cls-4" d="M64.4,20.5V55.183L89.861,69.5V34.745Z" transform="translate(-64.4 -6.393)"/>
      <g id="Group_266" data-name="Group 266" transform="translate(3.785 21.057)">
        <g id="Group_265" data-name="Group 265">
          <g id="Group_261" data-name="Group 261" transform="translate(0 20.163)">
            <path id="Path_18004" data-name="Path 18004" class="cls-3" d="M69.9,64.648,87.792,74.764V69.878L69.9,59.9Z" transform="translate(-69.9 -59.9)"/>
          </g>
          <g id="Group_262" data-name="Group 262" transform="translate(0 13.419)">
            <path id="Path_18005" data-name="Path 18005" class="cls-3" d="M69.9,54.848,87.792,64.964V60.078L69.9,50.1Z" transform="translate(-69.9 -50.1)"/>
          </g>
          <g id="Group_263" data-name="Group 263" transform="translate(0 6.744)">
            <path id="Path_18006" data-name="Path 18006" class="cls-3" d="M69.9,45.148,87.792,55.264V50.378L69.9,40.4Z" transform="translate(-69.9 -40.4)"/>
          </g>
          <g id="Group_264" data-name="Group 264">
            <path id="Path_18007" data-name="Path 18007" class="cls-3" d="M69.9,35.348,87.792,45.464V40.578L69.9,30.6Z" transform="translate(-69.9 -30.6)"/>
          </g>
        </g>
      </g>
      <g id="Group_272" data-name="Group 272" transform="translate(29.797 21.195)">
        <g id="Group_271" data-name="Group 271">
          <g id="Group_267" data-name="Group 267" transform="translate(0 20.094)">
            <path id="Path_18008" data-name="Path 18008" class="cls-2" d="M125.661,64.748,107.7,74.864V69.978L125.661,60Z" transform="translate(-107.7 -60)"/>
          </g>
          <g id="Group_268" data-name="Group 268" transform="translate(0 13.419)">
            <path id="Path_18009" data-name="Path 18009" class="cls-2" d="M125.661,55.048,107.7,65.164V60.278L125.661,50.3Z" transform="translate(-107.7 -50.3)"/>
          </g>
          <g id="Group_269" data-name="Group 269" transform="translate(0 6.675)">
            <path id="Path_18010" data-name="Path 18010" class="cls-2" d="M125.661,45.248,107.7,55.364V50.478L125.661,40.5Z" transform="translate(-107.7 -40.5)"/>
          </g>
          <g id="Group_270" data-name="Group 270">
            <path id="Path_18011" data-name="Path 18011" class="cls-2" d="M125.661,35.548,107.7,45.664V40.778L125.661,30.8Z" transform="translate(-107.7 -30.8)"/>
          </g>
        </g>
      </g>
    </g>
    <g id="Group_1189" data-name="Group 1189" transform="translate(946.319 576.309)">
      <path id="Path_18150" data-name="Path 18150" class="cls-5" d="M37.2,206.359,62.623,192.8l23.924,13.559L61.319,219.722Z" transform="translate(-37.2 -192.8)"/>
      <path id="Path_18151" data-name="Path 18151" class="cls-6" d="M74.2,226.863v32.919l25.227-14.146V213.5Z" transform="translate(-50.081 -200.006)"/>
      <path id="Path_18152" data-name="Path 18152" class="cls-7" d="M37.2,213.3v32.854l24.119,13.559V226.794Z" transform="translate(-37.2 -199.937)"/>
      <g id="Group_379" data-name="Group 379" transform="translate(3.52 19.947)">
        <g id="Group_292" data-name="Group 292">
          <g id="Group_288" data-name="Group 288" transform="translate(0 19.1)">
            <path id="Path_18042" data-name="Path 18042" class="cls-6" d="M42.6,257.2l17.014,9.582v-4.628L42.6,252.7Z" transform="translate(-42.6 -252.7)"/>
          </g>
          <g id="Group_289" data-name="Group 289" transform="translate(0 12.711)">
            <path id="Path_18043" data-name="Path 18043" class="cls-6" d="M42.6,247.4l17.014,9.582v-4.628L42.6,242.9Z" transform="translate(-42.6 -242.9)"/>
          </g>
          <g id="Group_290" data-name="Group 290" transform="translate(0 6.388)">
            <path id="Path_18044" data-name="Path 18044" class="cls-6" d="M42.6,237.7l17.014,9.582v-4.628L42.6,233.2Z" transform="translate(-42.6 -233.2)"/>
          </g>
          <g id="Group_291" data-name="Group 291">
            <path id="Path_18045" data-name="Path 18045" class="cls-6" d="M42.6,227.9l17.014,9.583v-4.628L42.6,223.4Z" transform="translate(-42.6 -223.4)"/>
          </g>
        </g>
      </g>
      <g id="Group_380" data-name="Group 380" transform="translate(28.226 20.078)">
        <g id="Group_298" data-name="Group 298">
          <g id="Group_294" data-name="Group 294" transform="translate(0 19.035)">
            <path id="Path_18046" data-name="Path 18046" class="cls-8" d="M97.514,257.3,80.5,266.88v-4.628L97.514,252.8Z" transform="translate(-80.5 -252.8)"/>
          </g>
          <g id="Group_295" data-name="Group 295" transform="translate(0 12.711)">
            <path id="Path_18047" data-name="Path 18047" class="cls-8" d="M97.514,247.6,80.5,257.18v-4.628L97.514,243.1Z" transform="translate(-80.5 -243.1)"/>
          </g>
          <g id="Group_296" data-name="Group 296" transform="translate(0 6.323)">
            <path id="Path_18048" data-name="Path 18048" class="cls-8" d="M97.514,237.8,80.5,247.38v-4.628L97.514,233.3Z" transform="translate(-80.5 -233.3)"/>
          </g>
          <g id="Group_297" data-name="Group 297">
            <path id="Path_18049" data-name="Path 18049" class="cls-8" d="M97.514,228.1,80.5,237.68v-4.628L97.514,223.6Z" transform="translate(-80.5 -223.6)"/>
          </g>
        </g>
      </g>
    </g>
    <g id="Group_1017" data-name="Group 1017" class="cls-9" transform="translate(945 536)">
      <path id="Path_18001-2" data-name="Path 18001" class="cls-2" d="M64.4,14.314,91.238,0l25.255,14.314L89.861,28.421Z" transform="translate(-64.4)"/>
      <path id="Path_18002-2" data-name="Path 18002" class="cls-3" d="M101.4,34.807V69.559l26.631-14.933V20.7Z" transform="translate(-75.939 -6.455)"/>
      <path id="Path_18003-2" data-name="Path 18003" class="cls-4" d="M64.4,20.5V55.183L89.861,69.5V34.745Z" transform="translate(-64.4 -6.393)"/>
      <g id="Group_266-2" data-name="Group 266" transform="translate(3.785 21.057)">
        <g id="Group_265-2" data-name="Group 265">
          <g id="Group_261-2" data-name="Group 261" transform="translate(0 20.163)">
            <path id="Path_18004-2" data-name="Path 18004" class="cls-3" d="M69.9,64.648,87.792,74.764V69.878L69.9,59.9Z" transform="translate(-69.9 -59.9)"/>
          </g>
          <g id="Group_262-2" data-name="Group 262" transform="translate(0 13.419)">
            <path id="Path_18005-2" data-name="Path 18005" class="cls-3" d="M69.9,54.848,87.792,64.964V60.078L69.9,50.1Z" transform="translate(-69.9 -50.1)"/>
          </g>
          <g id="Group_263-2" data-name="Group 263" transform="translate(0 6.744)">
            <path id="Path_18006-2" data-name="Path 18006" class="cls-3" d="M69.9,45.148,87.792,55.264V50.378L69.9,40.4Z" transform="translate(-69.9 -40.4)"/>
          </g>
          <g id="Group_264-2" data-name="Group 264">
            <path id="Path_18007-2" data-name="Path 18007" class="cls-3" d="M69.9,35.348,87.792,45.464V40.578L69.9,30.6Z" transform="translate(-69.9 -30.6)"/>
          </g>
        </g>
      </g>
      <g id="Group_272-2" data-name="Group 272" transform="translate(29.797 21.195)">
        <g id="Group_271-2" data-name="Group 271">
          <g id="Group_267-2" data-name="Group 267" transform="translate(0 20.094)">
            <path id="Path_18008-2" data-name="Path 18008" class="cls-2" d="M125.661,64.748,107.7,74.864V69.978L125.661,60Z" transform="translate(-107.7 -60)"/>
          </g>
          <g id="Group_268-2" data-name="Group 268" transform="translate(0 13.419)">
            <path id="Path_18009-2" data-name="Path 18009" class="cls-2" d="M125.661,55.048,107.7,65.164V60.278L125.661,50.3Z" transform="translate(-107.7 -50.3)"/>
          </g>
          <g id="Group_269-2" data-name="Group 269" transform="translate(0 6.675)">
            <path id="Path_18010-2" data-name="Path 18010" class="cls-2" d="M125.661,45.248,107.7,55.364V50.478L125.661,40.5Z" transform="translate(-107.7 -40.5)"/>
          </g>
          <g id="Group_270-2" data-name="Group 270">
            <path id="Path_18011-2" data-name="Path 18011" class="cls-2" d="M125.661,35.548,107.7,45.664V40.778L125.661,30.8Z" transform="translate(-107.7 -30.8)"/>
          </g>
        </g>
      </g>
    </g>
  </g>
</svg>
