<?xml version="1.0" encoding="utf-8"?>
<!-- Generator: Adobe Illustrator 22.1.0, SVG Export Plug-In . SVG Version: 6.00 Build 0)  -->
<svg version="1.1" id="Layer_1" xmlns="http://www.w3.org/2000/svg" xmlns:xlink="http://www.w3.org/1999/xlink" x="0px" y="0px"
	 viewBox="0 0 267.8 60.2" style="enable-background:new 0 0 267.8 60.2;" xml:space="preserve">
<style type="text/css">
	.st0{fill:#222323;}
	.st1{fill:#E61F5F;}
	.st2{fill:#FFFFFF;}
</style>
<g>
	<path class="st0" d="M86.6,36.5c0,3.4-0.9,5.9-2.6,7.6c-1.7,1.6-4.4,2.5-8,2.5c-1.3,0-2.5-0.1-3.8-0.3s-2.4-0.5-3.5-0.9l1-4.9
		c0.9,0.4,1.9,0.7,2.9,0.9s2.2,0.3,3.5,0.3c1.7,0,2.9-0.4,3.6-1.1c0.7-0.7,1-1.7,1-2.8V37c-0.6,0.3-1.3,0.5-2,0.7
		c-0.7,0.1-1.4,0.2-2.2,0.2c-2.9,0-5.1-0.9-6.6-2.6c-1.5-1.7-2.3-4.1-2.3-7.1c0-1.5,0.2-2.9,0.7-4.2c0.5-1.3,1.2-2.3,2.1-3.2
		c0.9-0.9,2-1.6,3.3-2.1s2.8-0.7,4.5-0.7c0.7,0,1.4,0,2.2,0.1c0.8,0.1,1.5,0.2,2.2,0.3c0.7,0.1,1.4,0.2,2.1,0.4
		c0.7,0.1,1.3,0.3,1.8,0.5v17.2H86.6z M73.7,28c0,3.3,1.3,4.9,4,4.9c0.6,0,1.2-0.1,1.7-0.2c0.5-0.2,1-0.3,1.3-0.6v-9.4
		c-0.3-0.1-0.6-0.1-1-0.1s-0.9-0.1-1.4-0.1c-1.6,0-2.7,0.5-3.5,1.5C74,25.1,73.7,26.4,73.7,28z"/>
	<path class="st0" d="M103.7,23.5c-0.5-0.1-1.1-0.3-1.9-0.4c-0.7-0.1-1.5-0.2-2.3-0.2c-0.4,0-0.8,0-1.3,0.1s-0.9,0.1-1.2,0.2v15.9
		h-5.9V19.4c1.1-0.4,2.3-0.7,3.7-1c1.4-0.3,3-0.5,4.8-0.5c0.3,0,0.7,0,1.1,0.1c0.4,0,0.9,0.1,1.3,0.2s0.9,0.1,1.3,0.2
		s0.8,0.2,1.1,0.3L103.7,23.5z"/>
	<path class="st0" d="M113.9,17.7c1.7,0,3.2,0.2,4.4,0.6c1.2,0.4,2.1,1,2.8,1.7c0.7,0.7,1.2,1.6,1.5,2.7s0.4,2.2,0.4,3.5v12.3
		c-0.8,0.2-2,0.4-3.5,0.7s-3.3,0.4-5.5,0.4c-1.3,0-2.6-0.1-3.7-0.4c-1.1-0.2-2-0.6-2.8-1.2c-0.8-0.5-1.4-1.2-1.8-2.1
		c-0.4-0.9-0.6-1.9-0.6-3.2c0-1.2,0.2-2.2,0.7-3.1c0.5-0.8,1.1-1.5,2-2c0.8-0.5,1.8-0.9,2.8-1.1c1.1-0.2,2.1-0.3,3.3-0.3
		c0.8,0,1.4,0,2,0.1s1.1,0.2,1.4,0.3V26c0-1-0.3-1.8-0.9-2.4s-1.7-0.9-3.2-0.9c-1,0-2,0.1-3,0.2s-1.8,0.3-2.5,0.6l-0.8-4.7
		c0.3-0.1,0.8-0.2,1.3-0.3c0.5-0.1,1.1-0.2,1.7-0.3c0.6-0.1,1.2-0.2,1.9-0.2C112.6,17.8,113.2,17.7,113.9,17.7z M114.4,35
		c0.6,0,1.1,0,1.7,0c0.5,0,0.9-0.1,1.3-0.1v-4.5c-0.2-0.1-0.6-0.1-1.1-0.2c-0.5-0.1-0.9-0.1-1.3-0.1c-0.6,0-1.1,0-1.6,0.1
		s-0.9,0.2-1.3,0.4s-0.7,0.4-0.9,0.8c-0.2,0.3-0.3,0.7-0.3,1.2c0,0.9,0.3,1.6,0.9,1.9C112.5,34.8,113.3,35,114.4,35z"/>
	<path class="st0" d="M132.5,39.1c-1.3-2.6-2.7-5.7-4.1-9.3c-1.4-3.5-2.7-7.4-4-11.6h6.2c0.3,1,0.6,2.1,0.9,3.3
		c0.4,1.2,0.7,2.4,1.1,3.6c0.4,1.2,0.8,2.4,1.2,3.6c0.4,1.2,0.8,2.2,1.1,3.2c0.3-0.9,0.7-2,1.1-3.2c0.4-1.2,0.8-2.4,1.2-3.6
		s0.8-2.4,1.1-3.6c0.4-1.2,0.7-2.3,0.9-3.3h6.1c-1.2,4.2-2.6,8-3.9,11.6c-1.4,3.5-2.8,6.6-4.1,9.3C137.3,39.1,132.5,39.1,132.5,39.1
		z"/>
	<path class="st0" d="M154,12.3c0,1.1-0.3,1.9-1,2.6c-0.7,0.6-1.5,0.9-2.5,0.9c-0.9,0-1.8-0.3-2.5-0.9s-1-1.5-1-2.6s0.3-1.9,1-2.6
		c0.7-0.6,1.5-0.9,2.5-0.9c0.9,0,1.8,0.3,2.5,0.9C153.7,10.4,154,11.2,154,12.3z M153.5,39.1h-5.9V18.3h5.9V39.1z"/>
	<path class="st0" d="M157.8,13.1l5.9-0.9v6.1h7.1v4.9h-7.1v7.3c0,1.2,0.2,2.2,0.7,3c0.4,0.7,1.3,1.1,2.6,1.1c0.6,0,1.3-0.1,2-0.2
		c0.7-0.1,1.3-0.3,1.8-0.5l0.8,4.6c-0.7,0.3-1.5,0.5-2.4,0.8s-1.9,0.3-3.2,0.3c-1.6,0-2.9-0.2-4-0.7c-1.1-0.4-1.9-1-2.5-1.8
		s-1.1-1.7-1.3-2.8c-0.3-1.1-0.4-2.3-0.4-3.7L157.8,13.1L157.8,13.1z"/>
	<path class="st0" d="M181.1,12.3c0,1.1-0.3,1.9-1,2.6c-0.7,0.6-1.5,0.9-2.5,0.9c-0.9,0-1.8-0.3-2.5-0.9s-1-1.5-1-2.6s0.3-1.9,1-2.6
		c0.7-0.6,1.5-0.9,2.5-0.9c0.9,0,1.8,0.3,2.5,0.9C180.7,10.4,181.1,11.2,181.1,12.3z M180.5,39.1h-5.9V18.3h5.9V39.1z"/>
	<path class="st0" d="M194.2,39.5c-1.6,0-3-0.3-4.2-0.8s-2.2-1.2-3-2.2c-0.8-0.9-1.4-2.1-1.8-3.4c-0.4-1.3-0.6-2.7-0.6-4.3
		c0-1.6,0.2-3.1,0.7-4.4c0.4-1.3,1.1-2.5,1.9-3.4c0.8-0.9,1.8-1.7,3-2.2s2.5-0.8,3.9-0.8c1.1,0,2.1,0.1,3.1,0.3
		c1,0.2,1.7,0.4,2.2,0.7l-0.7,2.2c-0.5-0.3-1.1-0.5-1.8-0.6c-0.7-0.2-1.5-0.2-2.7-0.2c-2.3,0-4,0.7-5.2,2.2s-1.8,3.5-1.8,6.2
		c0,1.2,0.1,2.3,0.4,3.3c0.3,1,0.7,1.9,1.3,2.6c0.6,0.7,1.4,1.3,2.3,1.7c0.9,0.4,2.1,0.6,3.4,0.6c1.1,0,2-0.1,2.8-0.4
		c0.8-0.3,1.3-0.5,1.6-0.7l0.6,2.2c-0.5,0.3-1.2,0.5-2.2,0.8C196.3,39.4,195.3,39.5,194.2,39.5z"/>
	<path class="st0" d="M202.9,39.1V8.9l2.6-0.5v10.8c0.8-0.3,1.7-0.6,2.6-0.7s1.7-0.3,2.6-0.3c1.6,0,2.9,0.2,4,0.7
		c1.1,0.4,1.9,1.1,2.5,1.9s1.1,1.8,1.3,3c0.3,1.2,0.4,2.4,0.4,3.8V39h-2.6V28.5c0-1.4-0.1-2.7-0.3-3.7s-0.5-1.8-1-2.5
		c-0.5-0.6-1.1-1.1-1.8-1.4c-0.8-0.3-1.7-0.4-2.9-0.4c-0.4,0-0.9,0-1.4,0.1s-1,0.2-1.4,0.3c-0.4,0.1-0.9,0.2-1.2,0.3
		c-0.4,0.1-0.6,0.2-0.7,0.2V39L202.9,39.1L202.9,39.1z"/>
	<path class="st0" d="M230.6,18.2c1.3,0,2.5,0.2,3.4,0.6s1.7,0.9,2.3,1.6s1,1.5,1.3,2.4s0.4,1.9,0.4,3v12.9
		c-0.3,0.1-0.6,0.2-1.1,0.3s-1.1,0.2-1.7,0.3c-0.7,0.1-1.4,0.2-2.2,0.3s-1.6,0.1-2.5,0.1c-1.1,0-2.1-0.1-3-0.4
		c-0.9-0.2-1.7-0.6-2.4-1.1s-1.2-1.2-1.6-2c-0.4-0.8-0.6-1.8-0.6-2.9c0-1.1,0.2-2.1,0.6-2.8c0.4-0.8,1-1.4,1.8-2
		c0.8-0.5,1.7-0.9,2.7-1.1c1.1-0.2,2.2-0.4,3.4-0.4c0.4,0,0.8,0,1.2,0.1c0.4,0,0.8,0.1,1.2,0.2s0.7,0.1,1,0.2s0.5,0.1,0.6,0.2v-1.3
		c0-0.7-0.1-1.4-0.2-2.1c-0.1-0.7-0.3-1.3-0.7-1.8s-0.9-1-1.5-1.3s-1.5-0.5-2.6-0.5c-1.5,0-2.6,0.1-3.4,0.3
		c-0.7,0.2-1.3,0.4-1.6,0.5l-0.4-2.3c0.4-0.2,1.1-0.4,2.1-0.6C228.2,18.3,229.3,18.2,230.6,18.2z M230.9,37.2c1,0,1.9,0,2.6-0.1
		c0.8-0.1,1.4-0.2,1.9-0.3v-7.2c-0.3-0.1-0.8-0.3-1.4-0.4c-0.6-0.1-1.5-0.2-2.6-0.2c-0.6,0-1.3,0-2,0.1s-1.3,0.3-1.9,0.6
		c-0.6,0.3-1.1,0.7-1.4,1.2c-0.4,0.5-0.6,1.2-0.6,2.1c0,0.8,0.1,1.4,0.4,1.9c0.3,0.5,0.6,0.9,1.1,1.3c0.5,0.3,1,0.5,1.7,0.7
		C229.3,37.2,230,37.2,230.9,37.2z"/>
	<path class="st0" d="M246.7,12.5c0,0.6-0.2,1.1-0.6,1.4c-0.4,0.4-0.8,0.5-1.3,0.5s-1-0.2-1.3-0.5c-0.4-0.4-0.6-0.8-0.6-1.4
		s0.2-1.1,0.6-1.4s0.8-0.5,1.3-0.5s1,0.2,1.3,0.5C246.5,11.4,246.7,11.9,246.7,12.5z M246.1,39.1h-2.6V18.7h2.6V39.1z"/>
	<path class="st0" d="M251.9,19.4c0.8-0.2,1.8-0.4,3.1-0.7c1.3-0.3,2.9-0.4,4.7-0.4c1.6,0,2.9,0.2,3.9,0.7c1,0.4,1.9,1.1,2.5,1.9
		s1.1,1.8,1.3,3c0.3,1.2,0.4,2.4,0.4,3.8v11.4h-2.6V28.5c0-1.4-0.1-2.7-0.3-3.7c-0.2-1-0.5-1.8-1-2.5c-0.5-0.6-1.1-1.1-1.8-1.4
		c-0.8-0.3-1.7-0.4-2.8-0.4c-1.2,0-2.3,0.1-3.1,0.2c-0.9,0.1-1.5,0.3-1.7,0.4v18h-2.6V19.4z"/>
</g>
<path class="st1" d="M8.8,51.1c0,0.1,0.1,0.1,0.2,0.1L8.8,51.1L8.8,51.1z"/>
<path class="st1" d="M23.1,35.9c1.4-0.6,2.4-1.6,3-3.1c0.6-1.3,0.6-2.6,0-3.9c-0.6-1.3-1.6-2.2-3-2.7s-2.8-0.4-4.2,0.2h-0.1
	c-1.4,0.6-2.4,1.6-2.9,2.9c-0.5,1.4-0.5,2.7,0.1,4s1.6,2.2,3,2.7C20.3,36.5,21.7,36.5,23.1,35.9z"/>
<path class="st1" d="M51.5,13.1L29.9,0.7c-1.7-1-3.9-1-5.6,0L2.8,13.1c-1.7,1-2.8,2.8-2.8,4.8v24.9c0,2,1.1,3.8,2.8,4.8l6,3.4
	L9,51.1l0,0l0,0l7.1,4.1c0.7,0.4,2.6,1.6,2.8,2.8l0,0l0,0c-0.9-2.7-0.6-5.2,0.8-7.5v-0.1c-2-0.6-3.3-1.9-4.2-3.7c-0.9-2-0.5-3.9,1-6
	c0.1-0.2,0.1-0.4-0.1-0.5c-2.2-1-3.8-2.7-4.8-4.9c-0.7-1.5-0.9-3.1-0.8-4.6c0-0.1,0,1,0,0.9v-10l0,0v-7.4c0-0.7,0.5-1.2,1.2-1.2
	s1.2,0.5,1.2,1.2v5.5v1.9l0,0v2.6c0,0.2,0,0.3,0.1,0.4c0.2,0.5,0.7,0.9,1.3,0.9c0.7,0,1.3-0.6,1.3-1.3v-1.6V22v-2.4v-2.1
	c0-0.7,0.6-1.3,1.3-1.3c0.7,0,1.3,0.6,1.3,1.3v3.7c0,0.2,0.2,0.3,0.4,0.3c0.9-0.2,1.9-0.4,2.8-0.3c0.1,0,1.5,0,3.3,0.7
	c0.4,0.2,0.9,0.4,1.3,0.6c0,0,0.5,0.3,1.1,0.7c0.5-0.9,0.9-1.7,1.4-2.3c0.6-0.8,1.3-1.4,2.1-1.7c1.2-0.6,2.2-0.7,3.1-0.6
	c0.9,0.2,1.6,0.7,2.1,1.6c0.3,0.5,0.3,1.1,0.1,1.6s-0.6,0.9-1.1,1.1c-0.4,0.2-0.9,0.3-1.2,0.3c-0.4,0-0.7-0.1-1-0.1
	c-0.3-0.1-0.7-0.1-1-0.1s-0.7,0-1.1,0.2c-0.6,0.3-1.2,0.8-1.6,1.5c0.5,0.5,0.9,1.1,1.3,1.8c0.1,0.3,0.6,1.1,0.9,2.9
	c0.3,1.8,0.1,3.6-0.6,5.4c-1.1,2.6-2.9,4.4-5.5,5.6h-0.1c-1.1,0.5-2.3,0.8-3.5,0.8c-1.7,1.2-2.2,2.4-1.7,3.7
	c0.2,0.5,0.7,0.9,1.3,1.1c0.8,0.2,1.8,0.2,3.1-0.2c0.5-0.1,1-0.3,1.6-0.5c0.4-0.1,0.9-0.3,1.3-0.5c3.2-1.4,5.9-2,8.2-1.8
	c0.2,0,0.3-0.1,0.3-0.3v-4.1c0-0.7,0.6-1.3,1.3-1.3s1.3,0.6,1.3,1.3v2.2v2.4c0,0.2,0,2.2,0,2.2c0,0.7,0.6,1.3,1.3,1.3
	c0.6,0,1.1-0.5,1.2-1.1c0.1-0.3,0.1-0.5,0.1-0.5v-4.3v-5.6c0-0.7,0.6-1.2,1.2-1.2c0.7,0,1.2,0.6,1.2,1.2v16v0.3l0,0
	c0,0.8,0,1.4-0.1,1.9c0.3-0.8,0.8-1.6,1.6-2l6.4-3.7c0.8-0.4,1.4-1.1,1.9-1.8c0.6-0.9,0.9-1.9,0.9-3v-25
	C54.3,15.9,53.2,14.1,51.5,13.1z"/>
<path class="st1" d="M37.1,48.5c-0.3-0.4-0.7-0.6-1.1-0.7c-1.4-0.5-3.7,0-6.8,1.3l-0.5,0.2c-2.3,1-3.8,2.2-4.7,3.5
	c-0.8,1.3-0.9,2.7-0.2,4.3l0.2,0.5c0.1,0.2,0.3,0.4,0.4,0.6c0.3,0.5,0.8,0.8,1.4,1c1.6,0.6,3.9,0.2,7-1.1c2.3-1,4-2.2,5-3.6
	c1-1.4,1.3-2.7,0.7-4C38.1,49.7,37.6,49,37.1,48.5z"/>
<polygon class="st1" points="8.8,51.1 9,51.2 9,51.2 "/>
<path class="st2" d="M43.5,51.5V51V35c0-0.7-0.6-1.2-1.2-1.2c-0.7,0-1.2,0.6-1.2,1.2v5.6v4.3c0,0,0,0.2-0.1,0.5
	c-0.1,0.6-0.6,1.1-1.2,1.1c-0.7,0-1.3-0.6-1.3-1.3c0,0,0-2,0-2.2v-2.4v-2.2c0-0.7-0.6-1.3-1.3-1.3s-1.3,0.6-1.3,1.3v4.1
	c0,0.2-0.2,0.3-0.3,0.3c-2.3-0.2-5,0.4-8.2,1.8c-0.5,0.2-0.9,0.4-1.3,0.5c-0.6,0.2-1.1,0.4-1.6,0.5c-1.3,0.3-2.4,0.4-3.1,0.2
	c-0.6-0.2-1.1-0.5-1.3-1.1c-0.6-1.3,0-2.5,1.7-3.7c1.2-0.1,2.4-0.4,3.5-0.8h0.1c2.6-1.2,4.4-3,5.5-5.6c0.7-1.8,0.9-3.6,0.6-5.4
	c-0.3-1.8-0.8-2.6-0.9-2.9c-0.3-0.7-0.8-1.3-1.3-1.8c0.5-0.7,1-1.2,1.6-1.5c0.4-0.2,0.7-0.3,1.1-0.2c0.3,0,0.7,0.1,1,0.1
	c0.3,0.1,0.7,0.1,1,0.1c0.4,0,0.8-0.1,1.2-0.3c0.5-0.3,0.9-0.6,1.1-1.1c0.2-0.5,0.2-1-0.1-1.6c-0.4-0.9-1.1-1.4-2.1-1.6
	c-0.9-0.2-2,0-3.1,0.6c-0.7,0.4-1.4,0.9-2.1,1.7c-0.5,0.6-0.9,1.4-1.4,2.3c-0.6-0.4-1.1-0.7-1.1-0.7c-0.4-0.2-0.8-0.4-1.3-0.6
	C23.3,21,21.8,21,21.8,21c-0.9,0-1.8,0.1-2.8,0.3c-0.4,0.2-0.5,0.1-0.5-0.1v-3.7c0-0.7-0.6-1.3-1.3-1.3c-0.7,0-1.3,0.6-1.3,1.3v2.2
	v2.4v0.6v1.6c0,0.7-0.6,1.3-1.3,1.3c-0.6,0-1.1-0.4-1.3-0.9c0-0.1-0.1-0.3-0.1-0.4v-2.6l0,0v-1.9v-5.5c0-0.7-0.6-1.2-1.2-1.2
	c-0.7,0-1.2,0.6-1.2,1.2v7.4l0,0v10c0,0.1,0-1,0-0.9c-0.1,1.6,0.1,3.1,0.8,4.6c1,2.2,2.6,3.8,4.8,4.9c0.2,0.1,0.3,0.3,0.1,0.5
	c-1.5,2.1-1.8,4-1,6c0.8,1.8,2.2,3.1,4.2,3.7c0,0,0.1,0.1,0,0.1c-1.4,2.4-1.7,4.9-0.8,7.5c0.2-0.3,0.3-0.6,0.4-0.9l5,2.9
	c1.7,1,3.9,1,5.6,0l3-1.7c1.2-0.5,2.2-1.1,3-1.7l1.7-1l4.7-2.7l0.6,2.4l0,0l0,0c0.2-0.5,0.3-1.1,0.4-1.6c0-0.1,0.1-0.2,0.1-0.2
	C43.5,52.9,43.5,52.3,43.5,51.5L43.5,51.5z M18.9,36.1c-1.4-0.5-2.4-1.4-3-2.7s-0.6-2.6-0.1-4c0.6-1.4,1.6-2.3,2.9-2.9h0.1
	c1.4-0.6,2.8-0.7,4.2-0.2c1.4,0.5,2.3,1.4,3,2.7c0.6,1.3,0.6,2.6,0,3.9c-0.6,1.4-1.5,2.5-3,3.1C21.7,36.5,20.3,36.5,18.9,36.1z
	 M37.8,54.6c-1,1.4-2.7,2.5-5,3.6c-3.1,1.4-5.4,1.7-7,1.1c-0.6-0.2-1.1-0.5-1.4-1c-0.1-0.2-0.3-0.4-0.4-0.6l-0.2-0.5
	c-0.7-1.6-0.6-3,0.2-4.3c0.9-1.4,2.5-2.5,4.7-3.5l0.5-0.2c3.1-1.4,5.4-1.8,6.8-1.3c0.4,0.1,0.8,0.4,1.1,0.7c0.5,0.5,0.9,1.2,1.4,2.1
	C39.1,51.9,38.8,53.3,37.8,54.6z"/>
</svg>
